<?xml version="1.0" encoding="utf-8"?>
<!-- Generator: Adobe Illustrator 19.2.1, SVG Export Plug-In . SVG Version: 6.00 Build 0)  -->
<svg version="1.1" id="Layer_1" xmlns="http://www.w3.org/2000/svg" xmlns:xlink="http://www.w3.org/1999/xlink" x="0px" y="0px"
	 viewBox="0 0 64 64" style="enable-background:new 0 0 64 64;" xml:space="preserve">
<style type="text/css">
	.st0{fill:#95C11F;}
	.st1{fill:#FFFFFF;}
</style>
<title>benefits</title>
<rect class="st0" width="64" height="64"/>
<path class="st1" d="M49.3,42.7c0,1.6-1.3,2.9-2.9,2.9H17.1c-1.6,0-2.9-1.3-2.9-2.9V20.5c0-1.6,1.3-2.9,2.9-2.9h29.2
	c1.6,0,2.9,1.3,2.9,2.9V42.7z M46.9,20.5c0-0.3-0.3-0.6-0.6-0.6H17.1c-0.3,0-0.6,0.3-0.6,0.6v22.2c0,0.3,0.3,0.6,0.6,0.6h29.2
	c0.3,0,0.6-0.3,0.6-0.6V20.5z M23.6,40.9h-4.7v-7h4.7V40.9z M30.6,40.9h-4.7V24.6h4.7V40.9z M37.6,40.9h-4.7V29.2h4.7V40.9z
	 M44.6,40.9h-4.7V22.2h4.7V40.9z"/>
</svg>
